<svg xmlns="http://www.w3.org/2000/svg" width="1060" height="250" viewBox="0 0 1060 250">
  <g id="Group_134" data-name="Group 134" transform="translate(21658 16787)">
    <g id="Rectangle_1082" data-name="Rectangle 1082" transform="translate(-21658 -16787)" fill="#fff" stroke="#707070" stroke-width="1" opacity="0">
      <rect width="1060" height="250" stroke="none"/>
      <rect x="0.5" y="0.5" width="1059" height="249" fill="none"/>
    </g>
    <g id="Group_133" data-name="Group 133" transform="translate(-21627 -16736)">
      <g id="Group_26" data-name="Group 26" transform="translate(0 4.467)">
        <g id="Group_10" data-name="Group 10" transform="translate(0 0)">
          <circle id="Ellipse_70" data-name="Ellipse 70" cx="14.775" cy="14.775" r="14.775" transform="translate(29.55 31.397) rotate(90)" fill="#fc3"/>
          <circle id="Ellipse_68" data-name="Ellipse 68" cx="14.775" cy="14.775" r="14.775" transform="translate(29.55 105.272) rotate(90)" fill="#fc3"/>
          <circle id="Ellipse_69" data-name="Ellipse 69" cx="9.234" cy="9.234" r="9.234" transform="translate(24.009 73.875) rotate(90)" fill="#fc3"/>
          <circle id="Ellipse_71" data-name="Ellipse 71" cx="9.234" cy="9.234" r="9.234" transform="translate(24.009) rotate(90)" fill="#fc3"/>
        </g>
        <g id="Group_11" data-name="Group 11" transform="translate(56.698 13.667)">
          <circle id="Ellipse_77" data-name="Ellipse 77" cx="14.775" cy="14.775" r="14.775" transform="translate(29.55 68.334) rotate(90)" fill="#fc3"/>
          <circle id="Ellipse_76" data-name="Ellipse 76" cx="9.234" cy="9.234" r="9.234" transform="translate(24.009 110.812) rotate(90)" fill="#fc3"/>
          <circle id="Ellipse_78" data-name="Ellipse 78" cx="9.234" cy="9.234" r="9.234" transform="translate(24.009 36.937) rotate(90)" fill="#fc3"/>
          <circle id="Ellipse_79" data-name="Ellipse 79" cx="9.234" cy="9.234" r="9.234" transform="translate(24.009 0) rotate(90)" fill="#fc3"/>
        </g>
        <g id="Group_12" data-name="Group 12" transform="translate(113.397 0)">
          <circle id="Ellipse_86" data-name="Ellipse 86" cx="14.775" cy="14.775" r="14.775" transform="translate(29.55 31.397) rotate(90)" fill="#fc3"/>
          <circle id="Ellipse_87" data-name="Ellipse 87" cx="9.234" cy="9.234" r="9.234" transform="translate(24.009 0) rotate(90)" fill="#fc3"/>
          <circle id="Ellipse_85" data-name="Ellipse 85" cx="9.234" cy="9.234" r="9.234" transform="translate(24.009 73.875) rotate(90)" fill="#fc3"/>
          <circle id="Ellipse_84" data-name="Ellipse 84" cx="9.234" cy="9.234" r="9.234" transform="translate(24.009 110.812) rotate(90)" fill="#fc3"/>
        </g>
      </g>
      <text id="Weights_Biases" data-name="Weights &amp; Biases" transform="translate(205.489 109)" fill="#fff" font-size="105" font-family="SourceSerifPro-Regular, Source Serif Pro"><tspan x="0" y="0">Weights &amp; Biases</tspan></text>
    </g>
  </g>
</svg>
