<svg xmlns="http://www.w3.org/2000/svg" width="1060" height="250" viewBox="0 0 1060 250"><g data-name="Group 134"><g data-name="Group 133"><g data-name="Group 26" fill="#fc3"><g data-name="Group 10" transform="translate(31 55.467)"><circle data-name="Ellipse 70" cx="14.775" cy="14.775" r="14.775" transform="rotate(90 -.924 30.474)"/><circle data-name="Ellipse 68" cx="14.775" cy="14.775" r="14.775" transform="rotate(90 -37.861 67.411)"/><circle data-name="Ellipse 69" cx="9.234" cy="9.234" r="9.234" transform="rotate(90 -24.933 48.942)"/><circle data-name="Ellipse 71" cx="9.234" cy="9.234" r="9.234" transform="rotate(90 12.005 12.005)"/></g><g data-name="Group 11" transform="translate(87.698 69.134)"><circle data-name="Ellipse 77" cx="14.775" cy="14.775" r="14.775" transform="rotate(90 -19.392 48.942)"/><circle data-name="Ellipse 76" cx="9.234" cy="9.234" r="9.234" transform="rotate(90 -43.402 67.41)"/><circle data-name="Ellipse 78" cx="9.234" cy="9.234" r="9.234" transform="rotate(90 -6.464 30.473)"/><circle data-name="Ellipse 79" cx="9.234" cy="9.234" r="9.234" transform="rotate(90 12.005 12.005)"/></g><g data-name="Group 12" transform="translate(144.397 55.467)"><circle data-name="Ellipse 86" cx="14.775" cy="14.775" r="14.775" transform="rotate(90 -.924 30.474)"/><circle data-name="Ellipse 87" cx="9.234" cy="9.234" r="9.234" transform="rotate(90 12.005 12.005)"/><circle data-name="Ellipse 85" cx="9.234" cy="9.234" r="9.234" transform="rotate(90 -24.933 48.942)"/><circle data-name="Ellipse 84" cx="9.234" cy="9.234" r="9.234" transform="rotate(90 -43.402 67.41)"/></g></g><text data-name="Weights &amp; Biases" transform="translate(236.489 160)" fill="#fff" font-size="105" font-family="SourceSerifPro-Regular, Source Serif Pro"><tspan x="0" y="0">Weights &amp; Biases</tspan></text></g></g></svg>