<svg id="Layer_1" data-name="Layer 1" xmlns="http://www.w3.org/2000/svg" viewBox="0 0 744.69 132.69"><defs><style>.cls-1{fill:#5f6369}</style></defs><path class="cls-1" d="M227.88 47.4c-3.68 0-5.12.58-6.12 4l-11.31 38.42H201l-7.56-24.77h-.14L185 89.82h-9.58l-11.86-40.26c-.43-1.44-1.29-2.16-5.18-2.16v-5.33h20.81v5.33h-3c-1.59 0-2.24.94-2.24 1.88a12.14 12.14 0 0 0 .65 2.59l7 25.93h.14l8.36-24.35-1.23-3.38a3.44 3.44 0 0 0-3.6-2.67h-2.38v-5.33h21.51v5.33h-3.17c-1.58 0-2.66.51-2.66 1.44a10.56 10.56 0 0 0 .57 2.45l7.71 26h.15l7.2-25.49a8.11 8.11 0 0 0 .44-2.38c0-1.3-.87-2-3.39-2h-3.17v-5.35h19.81zm4.38 26.44c-.21 5.61 1.52 11.66 8.21 11.66 5.19 0 7.78-2.66 8.72-7.63h6c-.94 8.21-5.91 13-15.49 13-11.16 0-17.07-6.26-17.07-17.93 0-10.51 6.77-17.93 16.71-17.93 11.81 0 16.78 10.58 16 18.8zm13.4-4.76c.07-4.54-1.37-9-6.48-9-4.9 0-6.7 4.46-6.92 9zm10.84 20.74v-4.75h3.31c2 0 2.88-.79 2.88-2.88V63.75c0-2.09-.86-2.88-2.88-2.88h-3.31v-4.75h14.69v26.07c0 2.09.86 2.88 2.88 2.88h3.53v4.75zm9.5-48.61a5.19 5.19 0 1 1-5.18 5.18 5.21 5.21 0 0 1 5.18-5.18zm40.84 43.28c7.85 0 11.81 3.32 11.81 9.51 0 4.75-2.6 11.09-20.24 11.09-14.84 0-18.51-3.74-18.51-8 0-4 3.75-5.55 7.2-5.91v-.14c-3.89-.72-6.05-2.16-6.05-6.56a6.8 6.8 0 0 1 6.63-6.84v-.14c-3.89-2-5.4-5.4-5.4-9.73C282.28 59 290.05 55 298 55c4.75 0 9.5 1.44 12.24 3.53a9 9 0 0 1 7.47-3.53 7 7 0 0 1 7.29 7.09c0 3-1.45 5.12-4.61 5.12-2.38 0-4.4-1.23-4.4-3.82a4 4 0 0 1 3.32-4.18c.14-.28-.36-1.08-2.45-1.08s-3.76 1.59-4.86 3.17c1.3 2.38 2 4.11 2 6.48 0 9.22-7.88 12.61-16 12.61a22.23 22.23 0 0 1-7.64-1.23 3.22 3.22 0 0 0-1.94 2.74c0 1.3 1.15 2.59 6.12 2.59zm-12 7.28c-5 0-7.56 1.94-7.56 4.82 0 2.6 2.8 4.47 10.94 4.47 7.85 0 12.1-1.51 12.1-5.11a4.23 4.23 0 0 0-4.53-4.18zm3.31-15.41c4.18 0 6.27-2.89 6.27-8.29 0-6.12-2.09-9-6.27-9s-6.19 2.88-6.19 8.64 2.04 8.65 6.16 8.65z"/><path class="cls-1" d="M338.23 61.81h.15c2.95-3.89 6.91-6.77 12.53-6.77 6.34 0 10.23 4 10.23 10.08v17.07c0 2.09.86 2.88 2.88 2.88h4v4.75H347v-4.75h2.74c2 0 2.88-.79 2.88-2.88V65.7c0-3.68-2.52-5.05-6.34-5.05s-8.07 4-8.07 10.3v11.24c0 2.09.87 2.88 2.88 2.88h2.81v4.75h-21.15v-4.75h4.1c2 0 2.88-.79 2.88-2.88V49.71c0-2.09-.86-2.88-2.88-2.88h-4.1v-4.76h15.48zm26.77-.94v-4.54c7.35-.5 9.22-7 9.87-13.61h4.46v13.4h9.51v4.75h-9.29v21.25c0 1.44.79 2.37 2.73 2.37 2.24 0 3.1-1.22 3.1-4.1V74h4.75v6c0 7.56-4.17 10.87-9.86 10.87-5.4 0-9.22-2.23-9.22-8v-22zm34.44 15.77a11.49 11.49 0 0 0 4.25 7.06 12.74 12.74 0 0 0 7.92 2.38c2.53 0 5.62-1.37 5.62-4.32 0-7.06-22.68-3-22.68-15.92 0-7.13 6.84-10.8 13.17-10.8a19.18 19.18 0 0 1 10.59 3.53l1.44-2.45h4v12H419a11.51 11.51 0 0 0-3.89-5.9 10.52 10.52 0 0 0-6.77-2c-2.37 0-5.47 1-5.47 3.89 0 5.62 22.69 3 22.69 16.13 0 7.57-6.41 10.66-13.18 10.66-4.33 0-8.65-.72-12-3.67l-1.44 2.59h-4.76V76.64zm67.77-16.49h23.05v5.33h-1.59c-4.18 0-5.83.79-7.13 2.66l-9.29 13.11a6.4 6.4 0 0 0 5.4 2.74c6 0 7.2-5.76 7.2-10.44h5.48c0 10-2.23 17.71-14 17.71a18.24 18.24 0 0 1-11.31-3.74 27.25 27.25 0 0 1-13.47 3.74c-11.67 0-16.56-6.77-16.56-14.11 0-7.64 2.3-10.37 12.24-15.7-1.3-1.66-2.09-5.48-2.09-8.21 0-7.64 5-12.61 12.82-12.61 5.62 0 10.23 3.89 10.23 9.65s-4.54 10-9.29 12.75c1.44 3.46 6.7 11.09 9.43 13.54 1.66-1.65 5.4-6.41 5.4-8.5 0-1.73-.86-2.59-3.67-2.59h-2.88zm-13.76 24.34a13.48 13.48 0 0 0 7.06-1.65A110.64 110.64 0 0 1 450 67.21c-2.74 1.8-4.9 4-4.9 7.92 0 5.19 3.46 9.36 8.35 9.36zm8.29-33.92c0-2.73-1.66-4.32-4.4-4.32s-4.46 1.94-4.46 4.75c0 2.38 1.44 4.76 2.66 6.7 2.96-1.15 6.2-3.7 6.2-7.13zm35.42 33.92h5.12c2.23 0 3-.72 3-2.59V50c0-1.88-.72-2.6-3-2.6h-5.12v-5.33h26.72c14.12 0 18.66 4.4 18.66 11.81 0 6.34-4.25 9.58-10.09 10.52v.14c6 1.3 11.74 3.82 11.74 12 0 7.78-4.18 13.25-16.13 13.25h-30.9zm18.15-22.11h6.92c5.69 0 10.22-1 10.22-7.34 0-6.63-4.53-7.64-10.22-7.64h-6.92zm0 22.11h8.07c5.76 0 10.73-1.08 10.73-8.35s-5-8.43-10.73-8.43h-8.07zm31.3 5.33v-4.75h3.31c2 0 2.88-.79 2.88-2.88V63.75c0-2.09-.86-2.88-2.88-2.88h-3.31v-4.75h14.69v26.07c0 2.09.86 2.88 2.88 2.88h3.53v4.75zm9.5-48.61a5.19 5.19 0 1 1-5.18 5.18 5.21 5.21 0 0 1 5.18-5.18zm51.73 36.08v2.16c0 8.07-3.24 11.45-9.29 11.45-3.6 0-6.7-1.51-7.27-5.33-2.67 4-7.28 5.33-11.81 5.33-5.62 0-10-2.66-10-9.14 0-14 21.6-7.21 21.6-17.36 0-4.61-3.89-5.47-7.7-5.47-2 0-5.41.64-6.7 2.37 2.66-.36 4.75.79 4.75 3.75 0 3.24-2.23 4.25-5 4.25a5.11 5.11 0 0 1-5.24-5.3c0-7.35 8.79-8.93 14.48-8.93 9.72 0 13.9 4.39 13.9 10.44v17.62c0 1.58.65 2.37 1.73 2.37s1.94-1 1.94-5.47v-2.74zM591.06 72l-7.63 3.46c-2.09.94-4.32 2.09-4.32 5.48 0 3 1.36 4.53 4.32 4.53 4.9 0 7.63-4.17 7.63-8.78zm23.41 4.64a11.49 11.49 0 0 0 4.25 7.06 12.72 12.72 0 0 0 7.92 2.38c2.52 0 5.62-1.37 5.62-4.32 0-7.06-22.69-3-22.69-15.92 0-7.13 6.84-10.8 13.18-10.8a19.23 19.23 0 0 1 10.59 3.53l1.44-2.45h4v12h-4.69a11.56 11.56 0 0 0-3.88-5.9 10.52 10.52 0 0 0-6.77-2c-2.38 0-5.48 1-5.48 3.89 0 5.62 22.69 3 22.69 16.13 0 7.57-6.41 10.66-13.18 10.66-4.32 0-8.64-.72-12-3.67L614 89.82h-4.75V76.64zm39.03-2.8c-.22 5.61 1.51 11.66 8.21 11.66 5.18 0 7.78-2.66 8.71-7.63h6c-.94 8.21-5.91 13-15.48 13-11.17 0-17.07-6.26-17.07-17.93 0-10.51 6.77-17.93 16.7-17.93 11.82 0 16.79 10.58 16 18.8zm13.39-4.76c.08-4.54-1.37-9-6.48-9-4.9 0-6.7 4.46-6.91 9zm18.16 7.56a11.49 11.49 0 0 0 4.25 7.06 12.76 12.76 0 0 0 7.92 2.38c2.53 0 5.62-1.37 5.62-4.32 0-7.06-22.68-3-22.68-15.92 0-7.13 6.84-10.8 13.18-10.8a19.17 19.17 0 0 1 10.58 3.53l1.44-2.45h4v12h-4.68a11.51 11.51 0 0 0-3.89-5.9 10.5 10.5 0 0 0-6.77-2c-2.37 0-5.47 1-5.47 3.89 0 5.62 22.69 3 22.69 16.13 0 7.57-6.41 10.66-13.18 10.66-4.32 0-8.64-.72-12-3.67l-1.44 2.59h-4.82V76.64z"/><path fill="#f9c20a" d="M0 0h132.69v132.69H0z"/><path class="cls-1" d="M23.32 25a5.11 5.11 0 1 1-5.11 5.11A5.08 5.08 0 0 1 23.32 25zm0 12.06a5.11 5.11 0 1 1-5.11 5.11 5.09 5.09 0 0 1 5.11-5.11zm0 12.11a5.11 5.11 0 1 1-5.11 5.12 5.09 5.09 0 0 1 5.11-5.12zm0 36.34a5.11 5.11 0 1 1-5.11 5.11 5.08 5.08 0 0 1 5.11-5.11zm0-12.04a5.11 5.11 0 1 1-5.11 5.11 5.09 5.09 0 0 1 5.11-5.11zm0 24.15a5.11 5.11 0 1 1-5.11 5.11 5.09 5.09 0 0 1 5.11-5.11zm21.5-60.5a5.11 5.11 0 1 1-5.11 5.11 5.09 5.09 0 0 1 5.11-5.11zm0 12.05a5.11 5.11 0 1 1-5.11 5.12 5.1 5.1 0 0 1 5.11-5.12zm0 60.56a5.11 5.11 0 1 1-5.11 5.12 5.1 5.1 0 0 1 5.11-5.12zM66.33 25a5.11 5.11 0 1 1-5.11 5.11A5.09 5.09 0 0 1 66.33 25zm0 12.12a5.11 5.11 0 1 1-5.11 5.11 5.09 5.09 0 0 1 5.11-5.11zm0 24.23a5.1 5.1 0 1 1-5.11 5.11 5.08 5.08 0 0 1 5.11-5.11zm.02 12.12a5.11 5.11 0 1 1-5.12 5.11 5.1 5.1 0 0 1 5.12-5.11zm-.02 12.12a5.1 5.1 0 1 1-5.11 5.11 5.08 5.08 0 0 1 5.11-5.11zm21.52-48.47a5.11 5.11 0 1 1-5.11 5.11 5.09 5.09 0 0 1 5.11-5.11zm0 12.11a5.11 5.11 0 1 1-5.11 5.12 5.09 5.09 0 0 1 5.11-5.12zm0 36.33a5.11 5.11 0 1 1-5.11 5.12 5.09 5.09 0 0 1 5.11-5.12zM109.35 25a5.11 5.11 0 1 1-5.11 5.11 5.1 5.1 0 0 1 5.11-5.11zm.02 12.12a5.11 5.11 0 1 1-5.11 5.11 5.09 5.09 0 0 1 5.11-5.11zm-.02 48.47a5.1 5.1 0 1 1-5.11 5.11 5.09 5.09 0 0 1 5.11-5.11zM26.41 18a3 3 0 1 0-3 3 3 3 0 0 0 3-3zm-.06 48.34a3 3 0 1 0-3 3 3 3 0 0 0 3-3zM44.83 27.1a3 3 0 1 0 3 3 3 3 0 0 0-3-3zm0 36.24a3 3 0 1 0 3 3 3 3 0 0 0-3-3zm0 12.15a3 3 0 1 0 3 3 3 3 0 0 0-3-3zm-.06 12.12a3 3 0 1 0 3 3 3 3 0 0 0-3-3zm.06 12.11a3 3 0 1 0 3 3 3 3 0 0 0-3-3zM66.34 15a3 3 0 1 0 3 3 3 3 0 0 0-3-3zm.01 36.33a3 3 0 1 0 3 3 3 3 0 0 0-3-3zm-.01 48.46a3 3 0 1 0 3 3 3 3 0 0 0-3-3zm21.52-72.7a3 3 0 1 0 3 3 3 3 0 0 0-3-3zm0 36.34a3 3 0 1 0 3 3 3 3 0 0 0-3-3zm0 12.12a3 3 0 1 0 3 3 3 3 0 0 0-3-3zm0 24.24a3 3 0 1 0 3 3 3 3 0 0 0-3-3zm0 12.12a3 3 0 1 0 3 3 3 3 0 0 0-3-3zM109.36 15a3 3 0 1 0 3 3 3 3 0 0 0-3-3zm0 36.33a3 3 0 1 0 3 3 3 3 0 0 0-3-3zm0 12.1a3 3 0 1 0 3 3 3 3 0 0 0-3-3zm0 12.12a3 3 0 1 0 3 3 3 3 0 0 0-3-3zm0 24.24a3 3 0 1 0 3 3 3 3 0 0 0-3-3z"/></svg>