<svg xmlns="http://www.w3.org/2000/svg" width="142.947" height="142.949" viewBox="0 0 142.947 142.949"><g data-name="Group 50"><g data-name="Group 26" fill="#fc3"><g data-name="Group 10"><circle data-name="Ellipse 70" cx="14.775" cy="14.775" r="14.775" transform="rotate(90 -.924 30.474)"/><circle data-name="Ellipse 68" cx="14.775" cy="14.775" r="14.775" transform="rotate(90 -37.861 67.411)"/><circle data-name="Ellipse 69" cx="9.234" cy="9.234" r="9.234" transform="rotate(90 -24.933 48.942)"/><circle data-name="Ellipse 71" cx="9.234" cy="9.234" r="9.234" transform="rotate(90 12.005 12.005)"/></g><g data-name="Group 11" transform="translate(56.698 13.667)"><circle data-name="Ellipse 77" cx="14.775" cy="14.775" r="14.775" transform="rotate(90 -19.392 48.942)"/><circle data-name="Ellipse 76" cx="9.234" cy="9.234" r="9.234" transform="rotate(90 -43.402 67.41)"/><circle data-name="Ellipse 78" cx="9.234" cy="9.234" r="9.234" transform="rotate(90 -6.464 30.473)"/><circle data-name="Ellipse 79" cx="9.234" cy="9.234" r="9.234" transform="rotate(90 12.005 12.005)"/></g><g data-name="Group 12" transform="translate(113.397)"><circle data-name="Ellipse 86" cx="14.775" cy="14.775" r="14.775" transform="rotate(90 -.924 30.474)"/><circle data-name="Ellipse 87" cx="9.234" cy="9.234" r="9.234" transform="rotate(90 12.005 12.005)"/><circle data-name="Ellipse 85" cx="9.234" cy="9.234" r="9.234" transform="rotate(90 -24.933 48.942)"/><circle data-name="Ellipse 84" cx="9.234" cy="9.234" r="9.234" transform="rotate(90 -43.402 67.41)"/></g></g></g></svg>